<svg width="54" height="69" viewBox="0 0 54 69" fill="none" xmlns="http://www.w3.org/2000/svg">
<path d="M53.952 56.328V69H3.16801V58.9199L29.088 34.4399C31.84 31.8159 33.696 29.576 34.656 27.72C35.616 25.8 36.096 23.912 36.096 22.056C36.096 19.368 35.168 17.3199 33.312 15.9119C31.52 14.4399 28.864 13.7039 25.344 13.7039C22.4 13.7039 19.744 14.2799 17.376 15.4319C15.008 16.52 13.024 18.1839 11.424 20.4239L0.0960083 13.1279C2.72001 9.22395 6.33601 6.18395 10.944 4.00795C15.552 1.76795 20.832 0.647949 26.784 0.647949C31.776 0.647949 36.128 1.47995 39.84 3.14395C43.616 4.74395 46.528 7.04795 48.576 10.056C50.688 13 51.744 16.4879 51.744 20.52C51.744 24.1679 50.976 27.5919 49.44 30.7919C47.904 33.9919 44.928 37.6399 40.512 41.736L25.056 56.328H53.952Z" fill="#00FEFF"/>
</svg>
