<svg width="55" height="70" viewBox="0 0 55 70" fill="none" xmlns="http://www.w3.org/2000/svg">
<path d="M36.136 28.16C42.024 29.1201 46.536 31.3281 49.672 34.784C52.808 38.176 54.376 42.4001 54.376 47.4561C54.376 51.3601 53.352 54.9761 51.304 58.3041C49.256 61.5681 46.12 64.1921 41.896 66.1761C37.736 68.1601 32.616 69.1521 26.536 69.1521C21.8 69.1521 17.128 68.5441 12.52 67.3281C7.97599 66.0481 4.10399 64.2561 0.903992 61.9521L6.95199 50.048C9.51199 51.968 12.456 53.472 15.784 54.5601C19.176 55.584 22.632 56.0961 26.152 56.0961C30.056 56.0961 33.128 55.3601 35.368 53.8881C37.608 52.3521 38.728 50.2081 38.728 47.4561C38.728 41.9521 34.536 39.2001 26.152 39.2001H19.048V28.9281L32.872 13.28H4.26399V0.800049H51.304V10.8801L36.136 28.16Z" fill="#00FEFF"/>
</svg>
